%TF.GenerationSoftware,KiCad,Pcbnew,8.0.6*%
%TF.CreationDate,2025-01-17T20:36:53+09:00*%
%TF.ProjectId,f446re-qpf64-to-dip,66343436-7265-42d7-9170-6636342d746f,rev?*%
%TF.SameCoordinates,Original*%
%TF.FileFunction,Copper,L1,Top*%
%TF.FilePolarity,Positive*%
%FSLAX46Y46*%
G04 Gerber Fmt 4.6, Leading zero omitted, Abs format (unit mm)*
G04 Created by KiCad (PCBNEW 8.0.6) date 2025-01-17 20:36:53*
%MOMM*%
%LPD*%
G01*
G04 APERTURE LIST*
G04 Aperture macros list*
%AMRoundRect*
0 Rectangle with rounded corners*
0 $1 Rounding radius*
0 $2 $3 $4 $5 $6 $7 $8 $9 X,Y pos of 4 corners*
0 Add a 4 corners polygon primitive as box body*
4,1,4,$2,$3,$4,$5,$6,$7,$8,$9,$2,$3,0*
0 Add four circle primitives for the rounded corners*
1,1,$1+$1,$2,$3*
1,1,$1+$1,$4,$5*
1,1,$1+$1,$6,$7*
1,1,$1+$1,$8,$9*
0 Add four rect primitives between the rounded corners*
20,1,$1+$1,$2,$3,$4,$5,0*
20,1,$1+$1,$4,$5,$6,$7,0*
20,1,$1+$1,$6,$7,$8,$9,0*
20,1,$1+$1,$8,$9,$2,$3,0*%
G04 Aperture macros list end*
%TA.AperFunction,SMDPad,CuDef*%
%ADD10RoundRect,0.075000X-0.548008X0.441942X0.441942X-0.548008X0.548008X-0.441942X-0.441942X0.548008X0*%
%TD*%
%TA.AperFunction,SMDPad,CuDef*%
%ADD11RoundRect,0.075000X-0.548008X-0.441942X-0.441942X-0.548008X0.548008X0.441942X0.441942X0.548008X0*%
%TD*%
%TA.AperFunction,ComponentPad*%
%ADD12R,1.700000X1.700000*%
%TD*%
%TA.AperFunction,ComponentPad*%
%ADD13O,1.700000X1.700000*%
%TD*%
%TA.AperFunction,Conductor*%
%ADD14C,0.200000*%
%TD*%
G04 APERTURE END LIST*
D10*
%TO.P,U1,1,VBAT*%
%TO.N,Net-(J1-Pin_1)*%
X104218819Y-95465519D03*
%TO.P,U1,2,PC13*%
%TO.N,Net-(J1-Pin_2)*%
X103865266Y-95819072D03*
%TO.P,U1,3,PC14*%
%TO.N,Net-(J1-Pin_3)*%
X103511713Y-96172625D03*
%TO.P,U1,4,PC15*%
%TO.N,Net-(J1-Pin_4)*%
X103158159Y-96526179D03*
%TO.P,U1,5,PH0*%
%TO.N,Net-(J1-Pin_5)*%
X102804606Y-96879732D03*
%TO.P,U1,6,PH1*%
%TO.N,Net-(J1-Pin_6)*%
X102451052Y-97233286D03*
%TO.P,U1,7,NRST*%
%TO.N,Net-(J1-Pin_7)*%
X102097499Y-97586839D03*
%TO.P,U1,8,PC0*%
%TO.N,Net-(J1-Pin_8)*%
X101743946Y-97940392D03*
%TO.P,U1,9,PC1*%
%TO.N,Net-(J1-Pin_9)*%
X101390392Y-98293946D03*
%TO.P,U1,10,PC2*%
%TO.N,Net-(J1-Pin_10)*%
X101036839Y-98647499D03*
%TO.P,U1,11,PC3*%
%TO.N,Net-(J1-Pin_11)*%
X100683286Y-99001052D03*
%TO.P,U1,12,VSSA*%
%TO.N,Net-(J1-Pin_12)*%
X100329732Y-99354606D03*
%TO.P,U1,13,VDDA*%
%TO.N,Net-(J1-Pin_13)*%
X99976179Y-99708159D03*
%TO.P,U1,14,PA0*%
%TO.N,Net-(J1-Pin_14)*%
X99622625Y-100061713D03*
%TO.P,U1,15,PA1*%
%TO.N,Net-(J1-Pin_15)*%
X99269072Y-100415266D03*
%TO.P,U1,16,PA2*%
%TO.N,Net-(J1-Pin_16)*%
X98915519Y-100768819D03*
D11*
%TO.P,U1,17,PA3*%
%TO.N,Net-(J1-Pin_17)*%
X98915519Y-103491181D03*
%TO.P,U1,18,VSS*%
%TO.N,Net-(J1-Pin_18)*%
X99269072Y-103844734D03*
%TO.P,U1,19,VDD*%
%TO.N,Net-(J1-Pin_19)*%
X99622625Y-104198287D03*
%TO.P,U1,20,PA4*%
%TO.N,Net-(J1-Pin_20)*%
X99976179Y-104551841D03*
%TO.P,U1,21,PA5*%
%TO.N,Net-(J1-Pin_21)*%
X100329732Y-104905394D03*
%TO.P,U1,22,PA6*%
%TO.N,Net-(J1-Pin_22)*%
X100683286Y-105258948D03*
%TO.P,U1,23,PA7*%
%TO.N,Net-(J1-Pin_23)*%
X101036839Y-105612501D03*
%TO.P,U1,24,PC4*%
%TO.N,Net-(J1-Pin_24)*%
X101390392Y-105966054D03*
%TO.P,U1,25,PC5*%
%TO.N,Net-(J1-Pin_25)*%
X101743946Y-106319608D03*
%TO.P,U1,26,PB0*%
%TO.N,Net-(J1-Pin_26)*%
X102097499Y-106673161D03*
%TO.P,U1,27,PB1*%
%TO.N,Net-(J1-Pin_27)*%
X102451052Y-107026714D03*
%TO.P,U1,28,PB2*%
%TO.N,Net-(J1-Pin_28)*%
X102804606Y-107380268D03*
%TO.P,U1,29,PB10*%
%TO.N,Net-(J1-Pin_29)*%
X103158159Y-107733821D03*
%TO.P,U1,30,VCAP_1*%
%TO.N,Net-(J1-Pin_30)*%
X103511713Y-108087375D03*
%TO.P,U1,31,VSS*%
%TO.N,Net-(J1-Pin_18)*%
X103865266Y-108440928D03*
%TO.P,U1,32,VDD*%
%TO.N,Net-(J1-Pin_32)*%
X104218819Y-108794481D03*
D10*
%TO.P,U1,33,PB12*%
%TO.N,Net-(J2-Pin_1)*%
X106941181Y-108794481D03*
%TO.P,U1,34,PB13*%
%TO.N,Net-(J2-Pin_2)*%
X107294734Y-108440928D03*
%TO.P,U1,35,PB14*%
%TO.N,Net-(J2-Pin_3)*%
X107648287Y-108087375D03*
%TO.P,U1,36,PB15*%
%TO.N,Net-(J2-Pin_4)*%
X108001841Y-107733821D03*
%TO.P,U1,37,PC6*%
%TO.N,Net-(J2-Pin_5)*%
X108355394Y-107380268D03*
%TO.P,U1,38,PC7*%
%TO.N,Net-(J2-Pin_6)*%
X108708948Y-107026714D03*
%TO.P,U1,39,PC8*%
%TO.N,Net-(J2-Pin_7)*%
X109062501Y-106673161D03*
%TO.P,U1,40,PC9*%
%TO.N,Net-(J2-Pin_8)*%
X109416054Y-106319608D03*
%TO.P,U1,41,PA8*%
%TO.N,Net-(J2-Pin_9)*%
X109769608Y-105966054D03*
%TO.P,U1,42,PA9*%
%TO.N,Net-(J2-Pin_10)*%
X110123161Y-105612501D03*
%TO.P,U1,43,PA10*%
%TO.N,Net-(J2-Pin_11)*%
X110476714Y-105258948D03*
%TO.P,U1,44,PA11*%
%TO.N,Net-(J2-Pin_12)*%
X110830268Y-104905394D03*
%TO.P,U1,45,PA12*%
%TO.N,Net-(J2-Pin_13)*%
X111183821Y-104551841D03*
%TO.P,U1,46,PA13*%
%TO.N,Net-(J2-Pin_14)*%
X111537375Y-104198287D03*
%TO.P,U1,47,VSS*%
%TO.N,Net-(J1-Pin_18)*%
X111890928Y-103844734D03*
%TO.P,U1,48,VDD*%
%TO.N,Net-(J2-Pin_16)*%
X112244481Y-103491181D03*
D11*
%TO.P,U1,49,PA14*%
%TO.N,Net-(J2-Pin_17)*%
X112244481Y-100768819D03*
%TO.P,U1,50,PA15*%
%TO.N,Net-(J2-Pin_18)*%
X111890928Y-100415266D03*
%TO.P,U1,51,PC10*%
%TO.N,Net-(J2-Pin_19)*%
X111537375Y-100061713D03*
%TO.P,U1,52,PC11*%
%TO.N,Net-(J2-Pin_20)*%
X111183821Y-99708159D03*
%TO.P,U1,53,PC12*%
%TO.N,Net-(J2-Pin_21)*%
X110830268Y-99354606D03*
%TO.P,U1,54,PD2*%
%TO.N,Net-(J2-Pin_22)*%
X110476714Y-99001052D03*
%TO.P,U1,55,PB3*%
%TO.N,Net-(J2-Pin_23)*%
X110123161Y-98647499D03*
%TO.P,U1,56,PB4*%
%TO.N,Net-(J2-Pin_24)*%
X109769608Y-98293946D03*
%TO.P,U1,57,PB5*%
%TO.N,Net-(J2-Pin_25)*%
X109416054Y-97940392D03*
%TO.P,U1,58,PB6*%
%TO.N,Net-(J2-Pin_26)*%
X109062501Y-97586839D03*
%TO.P,U1,59,PB7*%
%TO.N,Net-(J2-Pin_27)*%
X108708948Y-97233286D03*
%TO.P,U1,60,BOOT0*%
%TO.N,Net-(J1-Pin_7)*%
X108355394Y-96879732D03*
%TO.P,U1,61,PB8*%
%TO.N,Net-(J2-Pin_29)*%
X108001841Y-96526179D03*
%TO.P,U1,62,PB9*%
%TO.N,Net-(J2-Pin_30)*%
X107648287Y-96172625D03*
%TO.P,U1,63,VSS*%
%TO.N,Net-(J1-Pin_18)*%
X107294734Y-95819072D03*
%TO.P,U1,64,VDD*%
%TO.N,Net-(J2-Pin_32)*%
X106941181Y-95465519D03*
%TD*%
D12*
%TO.P,J1,1,Pin_1*%
%TO.N,Net-(J1-Pin_1)*%
X94150000Y-62760000D03*
D13*
%TO.P,J1,2,Pin_2*%
%TO.N,Net-(J1-Pin_2)*%
X94150000Y-65300000D03*
%TO.P,J1,3,Pin_3*%
%TO.N,Net-(J1-Pin_3)*%
X94150000Y-67840000D03*
%TO.P,J1,4,Pin_4*%
%TO.N,Net-(J1-Pin_4)*%
X94150000Y-70380000D03*
%TO.P,J1,5,Pin_5*%
%TO.N,Net-(J1-Pin_5)*%
X94150000Y-72920000D03*
%TO.P,J1,6,Pin_6*%
%TO.N,Net-(J1-Pin_6)*%
X94150000Y-75460000D03*
%TO.P,J1,7,Pin_7*%
%TO.N,Net-(J1-Pin_7)*%
X94150000Y-78000000D03*
%TO.P,J1,8,Pin_8*%
%TO.N,Net-(J1-Pin_8)*%
X94150000Y-80540000D03*
%TO.P,J1,9,Pin_9*%
%TO.N,Net-(J1-Pin_9)*%
X94150000Y-83080000D03*
%TO.P,J1,10,Pin_10*%
%TO.N,Net-(J1-Pin_10)*%
X94150000Y-85620000D03*
%TO.P,J1,11,Pin_11*%
%TO.N,Net-(J1-Pin_11)*%
X94150000Y-88160000D03*
%TO.P,J1,12,Pin_12*%
%TO.N,Net-(J1-Pin_12)*%
X94150000Y-90700000D03*
%TO.P,J1,13,Pin_13*%
%TO.N,Net-(J1-Pin_13)*%
X94150000Y-93240000D03*
%TO.P,J1,14,Pin_14*%
%TO.N,Net-(J1-Pin_14)*%
X94150000Y-95780000D03*
%TO.P,J1,15,Pin_15*%
%TO.N,Net-(J1-Pin_15)*%
X94150000Y-98320000D03*
%TO.P,J1,16,Pin_16*%
%TO.N,Net-(J1-Pin_16)*%
X94150000Y-100860000D03*
%TO.P,J1,17,Pin_17*%
%TO.N,Net-(J1-Pin_17)*%
X94150000Y-103400000D03*
%TO.P,J1,18,Pin_18*%
%TO.N,Net-(J1-Pin_18)*%
X94150000Y-105940000D03*
%TO.P,J1,19,Pin_19*%
%TO.N,Net-(J1-Pin_19)*%
X94150000Y-108480000D03*
%TO.P,J1,20,Pin_20*%
%TO.N,Net-(J1-Pin_20)*%
X94150000Y-111020000D03*
%TO.P,J1,21,Pin_21*%
%TO.N,Net-(J1-Pin_21)*%
X94150000Y-113560000D03*
%TO.P,J1,22,Pin_22*%
%TO.N,Net-(J1-Pin_22)*%
X94150000Y-116100000D03*
%TO.P,J1,23,Pin_23*%
%TO.N,Net-(J1-Pin_23)*%
X94150000Y-118640000D03*
%TO.P,J1,24,Pin_24*%
%TO.N,Net-(J1-Pin_24)*%
X94150000Y-121180000D03*
%TO.P,J1,25,Pin_25*%
%TO.N,Net-(J1-Pin_25)*%
X94150000Y-123720000D03*
%TO.P,J1,26,Pin_26*%
%TO.N,Net-(J1-Pin_26)*%
X94150000Y-126260000D03*
%TO.P,J1,27,Pin_27*%
%TO.N,Net-(J1-Pin_27)*%
X94150000Y-128800000D03*
%TO.P,J1,28,Pin_28*%
%TO.N,Net-(J1-Pin_28)*%
X94150000Y-131340000D03*
%TO.P,J1,29,Pin_29*%
%TO.N,Net-(J1-Pin_29)*%
X94150000Y-133880000D03*
%TO.P,J1,30,Pin_30*%
%TO.N,Net-(J1-Pin_30)*%
X94150000Y-136420000D03*
%TO.P,J1,31,Pin_31*%
%TO.N,Net-(J1-Pin_18)*%
X94150000Y-138960000D03*
%TO.P,J1,32,Pin_32*%
%TO.N,Net-(J1-Pin_32)*%
X94150000Y-141500000D03*
%TD*%
D12*
%TO.P,J2,1,Pin_1*%
%TO.N,Net-(J2-Pin_1)*%
X117010000Y-141500000D03*
D13*
%TO.P,J2,2,Pin_2*%
%TO.N,Net-(J2-Pin_2)*%
X117010000Y-138960000D03*
%TO.P,J2,3,Pin_3*%
%TO.N,Net-(J2-Pin_3)*%
X117010000Y-136420000D03*
%TO.P,J2,4,Pin_4*%
%TO.N,Net-(J2-Pin_4)*%
X117010000Y-133880000D03*
%TO.P,J2,5,Pin_5*%
%TO.N,Net-(J2-Pin_5)*%
X117010000Y-131340000D03*
%TO.P,J2,6,Pin_6*%
%TO.N,Net-(J2-Pin_6)*%
X117010000Y-128800000D03*
%TO.P,J2,7,Pin_7*%
%TO.N,Net-(J2-Pin_7)*%
X117010000Y-126260000D03*
%TO.P,J2,8,Pin_8*%
%TO.N,Net-(J2-Pin_8)*%
X117010000Y-123720000D03*
%TO.P,J2,9,Pin_9*%
%TO.N,Net-(J2-Pin_9)*%
X117010000Y-121180000D03*
%TO.P,J2,10,Pin_10*%
%TO.N,Net-(J2-Pin_10)*%
X117010000Y-118640000D03*
%TO.P,J2,11,Pin_11*%
%TO.N,Net-(J2-Pin_11)*%
X117010000Y-116100000D03*
%TO.P,J2,12,Pin_12*%
%TO.N,Net-(J2-Pin_12)*%
X117010000Y-113560000D03*
%TO.P,J2,13,Pin_13*%
%TO.N,Net-(J2-Pin_13)*%
X117010000Y-111020000D03*
%TO.P,J2,14,Pin_14*%
%TO.N,Net-(J2-Pin_14)*%
X117010000Y-108480000D03*
%TO.P,J2,15,Pin_15*%
%TO.N,Net-(J1-Pin_18)*%
X117010000Y-105940000D03*
%TO.P,J2,16,Pin_16*%
%TO.N,Net-(J2-Pin_16)*%
X117010000Y-103400000D03*
%TO.P,J2,17,Pin_17*%
%TO.N,Net-(J2-Pin_17)*%
X117010000Y-100860000D03*
%TO.P,J2,18,Pin_18*%
%TO.N,Net-(J2-Pin_18)*%
X117010000Y-98320000D03*
%TO.P,J2,19,Pin_19*%
%TO.N,Net-(J2-Pin_19)*%
X117010000Y-95780000D03*
%TO.P,J2,20,Pin_20*%
%TO.N,Net-(J2-Pin_20)*%
X117010000Y-93240000D03*
%TO.P,J2,21,Pin_21*%
%TO.N,Net-(J2-Pin_21)*%
X117010000Y-90700000D03*
%TO.P,J2,22,Pin_22*%
%TO.N,Net-(J2-Pin_22)*%
X117010000Y-88160000D03*
%TO.P,J2,23,Pin_23*%
%TO.N,Net-(J2-Pin_23)*%
X117010000Y-85620000D03*
%TO.P,J2,24,Pin_24*%
%TO.N,Net-(J2-Pin_24)*%
X117010000Y-83080000D03*
%TO.P,J2,25,Pin_25*%
%TO.N,Net-(J2-Pin_25)*%
X117010000Y-80540000D03*
%TO.P,J2,26,Pin_26*%
%TO.N,Net-(J2-Pin_26)*%
X117010000Y-78000000D03*
%TO.P,J2,27,Pin_27*%
%TO.N,Net-(J2-Pin_27)*%
X117010000Y-75460000D03*
%TO.P,J2,28,Pin_28*%
%TO.N,Net-(J1-Pin_7)*%
X117010000Y-72920000D03*
%TO.P,J2,29,Pin_29*%
%TO.N,Net-(J2-Pin_29)*%
X117010000Y-70380000D03*
%TO.P,J2,30,Pin_30*%
%TO.N,Net-(J2-Pin_30)*%
X117010000Y-67840000D03*
%TO.P,J2,31,Pin_31*%
%TO.N,Net-(J1-Pin_18)*%
X117010000Y-65300000D03*
%TO.P,J2,32,Pin_32*%
%TO.N,Net-(J2-Pin_32)*%
X117010000Y-62760000D03*
%TD*%
D14*
%TO.N,Net-(J1-Pin_4)*%
X94150000Y-70380000D02*
X99800000Y-76030000D01*
X99800000Y-76030000D02*
X99800000Y-93168020D01*
X99800000Y-93168020D02*
X103158159Y-96526179D01*
%TO.N,Net-(J1-Pin_14)*%
X95340912Y-95780000D02*
X99622625Y-100061713D01*
X94150000Y-95780000D02*
X95340912Y-95780000D01*
%TO.N,Net-(J1-Pin_2)*%
X94150000Y-65300000D02*
X100700000Y-71850000D01*
X100700000Y-71850000D02*
X100700000Y-92653806D01*
X100700000Y-92653806D02*
X103865266Y-95819072D01*
%TO.N,Net-(J1-Pin_22)*%
X94150000Y-116100000D02*
X96650000Y-113600000D01*
X96650000Y-109292234D02*
X100683286Y-105258948D01*
X96650000Y-113600000D02*
X96650000Y-109292234D01*
%TO.N,Net-(J1-Pin_9)*%
X94150000Y-83080000D02*
X97550000Y-86480000D01*
X97550000Y-94453554D02*
X101390392Y-98293946D01*
X97550000Y-86480000D02*
X97550000Y-94453554D01*
%TO.N,Net-(J1-Pin_7)*%
X111770000Y-78160000D02*
X117010000Y-72920000D01*
X108355394Y-96879732D02*
X111770000Y-93465126D01*
X111770000Y-93465126D02*
X111770000Y-78160000D01*
X98450000Y-93939340D02*
X102097499Y-97586839D01*
X94150000Y-78000000D02*
X98450000Y-82300000D01*
X98450000Y-82300000D02*
X98450000Y-93939340D01*
%TO.N,Net-(J1-Pin_30)*%
X94150000Y-136420000D02*
X100250000Y-130320000D01*
X100250000Y-111349088D02*
X103511713Y-108087375D01*
X100250000Y-130320000D02*
X100250000Y-111349088D01*
%TO.N,Net-(J1-Pin_21)*%
X96200000Y-109035126D02*
X100329732Y-104905394D01*
X96200000Y-111510000D02*
X96200000Y-109035126D01*
X94150000Y-113560000D02*
X96200000Y-111510000D01*
%TO.N,Net-(J1-Pin_27)*%
X94150000Y-128800000D02*
X98900000Y-124050000D01*
X98900000Y-110577766D02*
X102451052Y-107026714D01*
X98900000Y-124050000D02*
X98900000Y-110577766D01*
%TO.N,Net-(J1-Pin_11)*%
X94150000Y-88160000D02*
X96650000Y-90660000D01*
X96650000Y-94967766D02*
X100683286Y-99001052D01*
X96650000Y-90660000D02*
X96650000Y-94967766D01*
%TO.N,Net-(J1-Pin_15)*%
X99269072Y-100415266D02*
X97173806Y-98320000D01*
X97173806Y-98320000D02*
X94150000Y-98320000D01*
%TO.N,Net-(J1-Pin_29)*%
X99800000Y-111091980D02*
X103158159Y-107733821D01*
X94150000Y-133880000D02*
X99800000Y-128230000D01*
X99800000Y-128230000D02*
X99800000Y-111091980D01*
%TO.N,Net-(J1-Pin_19)*%
X95340912Y-108480000D02*
X99622625Y-104198287D01*
X94150000Y-108480000D02*
X95340912Y-108480000D01*
%TO.N,Net-(J1-Pin_26)*%
X94150000Y-126260000D02*
X98450000Y-121960000D01*
X98450000Y-110320660D02*
X102097499Y-106673161D01*
X98450000Y-121960000D02*
X98450000Y-110320660D01*
%TO.N,Net-(J1-Pin_10)*%
X97100000Y-94710660D02*
X101036839Y-98647499D01*
X94150000Y-85620000D02*
X97100000Y-88570000D01*
X97100000Y-88570000D02*
X97100000Y-94710660D01*
%TO.N,Net-(J1-Pin_24)*%
X97550000Y-117780000D02*
X97550000Y-109806446D01*
X94150000Y-121180000D02*
X97550000Y-117780000D01*
X97550000Y-109806446D02*
X101390392Y-105966054D01*
%TO.N,Net-(J1-Pin_1)*%
X101150000Y-92396700D02*
X104218819Y-95465519D01*
X94150000Y-62760000D02*
X101150000Y-69760000D01*
X101150000Y-69760000D02*
X101150000Y-92396700D01*
%TO.N,Net-(J1-Pin_3)*%
X100250000Y-73940000D02*
X100250000Y-92910912D01*
X100250000Y-92910912D02*
X103511713Y-96172625D01*
X94150000Y-67840000D02*
X100250000Y-73940000D01*
%TO.N,Net-(J1-Pin_32)*%
X101150000Y-111863300D02*
X104218819Y-108794481D01*
X101150000Y-134500000D02*
X101150000Y-111863300D01*
X94150000Y-141500000D02*
X101150000Y-134500000D01*
%TO.N,Net-(J1-Pin_16)*%
X98146700Y-100000000D02*
X98915519Y-100768819D01*
X95010000Y-100000000D02*
X98146700Y-100000000D01*
X94150000Y-100860000D02*
X95010000Y-100000000D01*
%TO.N,Net-(J1-Pin_12)*%
X96200000Y-92750000D02*
X96200000Y-95224874D01*
X96200000Y-95224874D02*
X100329732Y-99354606D01*
X94150000Y-90700000D02*
X96200000Y-92750000D01*
%TO.N,Net-(J1-Pin_6)*%
X98900000Y-80210000D02*
X98900000Y-93682234D01*
X94150000Y-75460000D02*
X98900000Y-80210000D01*
X98900000Y-93682234D02*
X102451052Y-97233286D01*
%TO.N,Net-(J1-Pin_5)*%
X94150000Y-72920000D02*
X99350000Y-78120000D01*
X99350000Y-93425126D02*
X102804606Y-96879732D01*
X99350000Y-78120000D02*
X99350000Y-93425126D01*
%TO.N,Net-(J1-Pin_25)*%
X98000000Y-119870000D02*
X98000000Y-110063554D01*
X94150000Y-123720000D02*
X98000000Y-119870000D01*
X98000000Y-110063554D02*
X101743946Y-106319608D01*
%TO.N,Net-(J1-Pin_20)*%
X94150000Y-111020000D02*
X95750000Y-109420000D01*
X95750000Y-109420000D02*
X95750000Y-108778020D01*
X95750000Y-108778020D02*
X99976179Y-104551841D01*
%TO.N,Net-(J1-Pin_28)*%
X99350000Y-110834874D02*
X102804606Y-107380268D01*
X99350000Y-126140000D02*
X99350000Y-110834874D01*
X94150000Y-131340000D02*
X99350000Y-126140000D01*
%TO.N,Net-(J1-Pin_8)*%
X94150000Y-80540000D02*
X98000000Y-84390000D01*
X98000000Y-94196446D02*
X101743946Y-97940392D01*
X98000000Y-84390000D02*
X98000000Y-94196446D01*
%TO.N,Net-(J1-Pin_23)*%
X94150000Y-118640000D02*
X97100000Y-115690000D01*
X97100000Y-109549340D02*
X101036839Y-105612501D01*
X97100000Y-115690000D02*
X97100000Y-109549340D01*
%TO.N,Net-(J1-Pin_13)*%
X94150000Y-93240000D02*
X95750000Y-94840000D01*
X95750000Y-95481980D02*
X99976179Y-99708159D01*
X95750000Y-94840000D02*
X95750000Y-95481980D01*
%TO.N,Net-(J1-Pin_17)*%
X94150000Y-103400000D02*
X95250000Y-104500000D01*
X97906700Y-104500000D02*
X98915519Y-103491181D01*
X95250000Y-104500000D02*
X97906700Y-104500000D01*
%TO.N,Net-(J2-Pin_12)*%
X114960000Y-109035126D02*
X110830268Y-104905394D01*
X114960000Y-111510000D02*
X114960000Y-109035126D01*
X117010000Y-113560000D02*
X114960000Y-111510000D01*
%TO.N,Net-(J2-Pin_16)*%
X113253300Y-104500000D02*
X112244481Y-103491181D01*
X115910000Y-104500000D02*
X113253300Y-104500000D01*
X117010000Y-103400000D02*
X115910000Y-104500000D01*
%TO.N,Net-(J2-Pin_23)*%
X114060000Y-94710660D02*
X110123161Y-98647499D01*
X114060000Y-88570000D02*
X114060000Y-94710660D01*
X117010000Y-85620000D02*
X114060000Y-88570000D01*
%TO.N,Net-(J2-Pin_11)*%
X117010000Y-116100000D02*
X114510000Y-113600000D01*
X114510000Y-113600000D02*
X114510000Y-109292234D01*
X114510000Y-109292234D02*
X110476714Y-105258948D01*
%TO.N,Net-(J2-Pin_22)*%
X114510000Y-90660000D02*
X114510000Y-94967766D01*
X114510000Y-94967766D02*
X110476714Y-99001052D01*
X117010000Y-88160000D02*
X114510000Y-90660000D01*
%TO.N,Net-(J2-Pin_27)*%
X117010000Y-75460000D02*
X112260000Y-80210000D01*
X112260000Y-93682234D02*
X108708948Y-97233286D01*
X112260000Y-80210000D02*
X112260000Y-93682234D01*
%TO.N,Net-(J2-Pin_17)*%
X113013300Y-100000000D02*
X112244481Y-100768819D01*
X116150000Y-100000000D02*
X113013300Y-100000000D01*
X117010000Y-100860000D02*
X116150000Y-100000000D01*
%TO.N,Net-(J2-Pin_5)*%
X117010000Y-131340000D02*
X111810000Y-126140000D01*
X111810000Y-110834874D02*
X108355394Y-107380268D01*
X111810000Y-126140000D02*
X111810000Y-110834874D01*
%TO.N,Net-(J2-Pin_32)*%
X109970000Y-92436700D02*
X106941181Y-95465519D01*
X117010000Y-62760000D02*
X109970000Y-69800000D01*
X109970000Y-69800000D02*
X109970000Y-92436700D01*
%TO.N,Net-(J2-Pin_30)*%
X110870000Y-73980000D02*
X110870000Y-92950912D01*
X110870000Y-92950912D02*
X107648287Y-96172625D01*
X117010000Y-67840000D02*
X110870000Y-73980000D01*
%TO.N,Net-(J2-Pin_25)*%
X117010000Y-80540000D02*
X113160000Y-84390000D01*
X113160000Y-94196446D02*
X109416054Y-97940392D01*
X113160000Y-84390000D02*
X113160000Y-94196446D01*
%TO.N,Net-(J2-Pin_2)*%
X117010000Y-138960000D02*
X110460000Y-132410000D01*
X110460000Y-111606194D02*
X107294734Y-108440928D01*
X110460000Y-132410000D02*
X110460000Y-111606194D01*
%TO.N,Net-(J2-Pin_6)*%
X112260000Y-110577766D02*
X108708948Y-107026714D01*
X117010000Y-128800000D02*
X112260000Y-124050000D01*
X112260000Y-124050000D02*
X112260000Y-110577766D01*
%TO.N,Net-(J2-Pin_9)*%
X117010000Y-121180000D02*
X113610000Y-117780000D01*
X113610000Y-117780000D02*
X113610000Y-109806446D01*
X113610000Y-109806446D02*
X109769608Y-105966054D01*
%TO.N,Net-(J2-Pin_10)*%
X117010000Y-118640000D02*
X114060000Y-115690000D01*
X114060000Y-109549340D02*
X110123161Y-105612501D01*
X114060000Y-115690000D02*
X114060000Y-109549340D01*
%TO.N,Net-(J2-Pin_13)*%
X115410000Y-108778020D02*
X111183821Y-104551841D01*
X115410000Y-109420000D02*
X115410000Y-108778020D01*
X117010000Y-111020000D02*
X115410000Y-109420000D01*
%TO.N,Net-(J2-Pin_29)*%
X111320000Y-76070000D02*
X111320000Y-93208020D01*
X111320000Y-93208020D02*
X108001841Y-96526179D01*
X117010000Y-70380000D02*
X111320000Y-76070000D01*
%TO.N,Net-(J2-Pin_19)*%
X115819088Y-95780000D02*
X111537375Y-100061713D01*
X117010000Y-95780000D02*
X115819088Y-95780000D01*
%TO.N,Net-(J2-Pin_20)*%
X115410000Y-94840000D02*
X115410000Y-95481980D01*
X115410000Y-95481980D02*
X111183821Y-99708159D01*
X117010000Y-93240000D02*
X115410000Y-94840000D01*
%TO.N,Net-(J2-Pin_14)*%
X115819088Y-108480000D02*
X111537375Y-104198287D01*
X117010000Y-108480000D02*
X115819088Y-108480000D01*
%TO.N,Net-(J2-Pin_3)*%
X117010000Y-136420000D02*
X110910000Y-130320000D01*
X110910000Y-130320000D02*
X110910000Y-111349088D01*
X110910000Y-111349088D02*
X107648287Y-108087375D01*
%TO.N,Net-(J2-Pin_1)*%
X110000000Y-111853300D02*
X106941181Y-108794481D01*
X110000000Y-134490000D02*
X110000000Y-111853300D01*
X117010000Y-141500000D02*
X110000000Y-134490000D01*
%TO.N,Net-(J2-Pin_26)*%
X117010000Y-78000000D02*
X112710000Y-82300000D01*
X112710000Y-93939340D02*
X109062501Y-97586839D01*
X112710000Y-82300000D02*
X112710000Y-93939340D01*
%TO.N,Net-(J2-Pin_4)*%
X117010000Y-133880000D02*
X111360000Y-128230000D01*
X111360000Y-111091980D02*
X108001841Y-107733821D01*
X111360000Y-128230000D02*
X111360000Y-111091980D01*
%TO.N,Net-(J2-Pin_21)*%
X117010000Y-90700000D02*
X114960000Y-92750000D01*
X114960000Y-95224874D02*
X110830268Y-99354606D01*
X114960000Y-92750000D02*
X114960000Y-95224874D01*
%TO.N,Net-(J2-Pin_24)*%
X113610000Y-94453554D02*
X109769608Y-98293946D01*
X113610000Y-86480000D02*
X113610000Y-94453554D01*
X117010000Y-83080000D02*
X113610000Y-86480000D01*
%TO.N,Net-(J2-Pin_18)*%
X117010000Y-98320000D02*
X113986194Y-98320000D01*
X113986194Y-98320000D02*
X111890928Y-100415266D01*
%TO.N,Net-(J2-Pin_8)*%
X117010000Y-123720000D02*
X113160000Y-119870000D01*
X113160000Y-119870000D02*
X113160000Y-110063554D01*
X113160000Y-110063554D02*
X109416054Y-106319608D01*
%TO.N,Net-(J2-Pin_7)*%
X112710000Y-121960000D02*
X112710000Y-110320660D01*
X112710000Y-110320660D02*
X109062501Y-106673161D01*
X117010000Y-126260000D02*
X112710000Y-121960000D01*
%TO.N,Net-(J1-Pin_18)*%
X100700000Y-111606194D02*
X103865266Y-108440928D01*
X113986194Y-105940000D02*
X111890928Y-103844734D01*
X97173806Y-105940000D02*
X99269072Y-103844734D01*
X110420000Y-92693806D02*
X107294734Y-95819072D01*
X100700000Y-132410000D02*
X100700000Y-111606194D01*
X94150000Y-105940000D02*
X97173806Y-105940000D01*
X117010000Y-65300000D02*
X110420000Y-71890000D01*
X94150000Y-138960000D02*
X100700000Y-132410000D01*
X110420000Y-71890000D02*
X110420000Y-92693806D01*
X117010000Y-105940000D02*
X113986194Y-105940000D01*
%TD*%
M02*
