%TF.GenerationSoftware,KiCad,Pcbnew,8.0.6*%
%TF.CreationDate,2025-01-17T23:36:16+09:00*%
%TF.ProjectId,f446re-qpf64-to-dip,66343436-7265-42d7-9170-6636342d746f,rev?*%
%TF.SameCoordinates,Original*%
%TF.FileFunction,Paste,Top*%
%TF.FilePolarity,Positive*%
%FSLAX46Y46*%
G04 Gerber Fmt 4.6, Leading zero omitted, Abs format (unit mm)*
G04 Created by KiCad (PCBNEW 8.0.6) date 2025-01-17 23:36:16*
%MOMM*%
%LPD*%
G01*
G04 APERTURE LIST*
G04 Aperture macros list*
%AMRoundRect*
0 Rectangle with rounded corners*
0 $1 Rounding radius*
0 $2 $3 $4 $5 $6 $7 $8 $9 X,Y pos of 4 corners*
0 Add a 4 corners polygon primitive as box body*
4,1,4,$2,$3,$4,$5,$6,$7,$8,$9,$2,$3,0*
0 Add four circle primitives for the rounded corners*
1,1,$1+$1,$2,$3*
1,1,$1+$1,$4,$5*
1,1,$1+$1,$6,$7*
1,1,$1+$1,$8,$9*
0 Add four rect primitives between the rounded corners*
20,1,$1+$1,$2,$3,$4,$5,0*
20,1,$1+$1,$4,$5,$6,$7,0*
20,1,$1+$1,$6,$7,$8,$9,0*
20,1,$1+$1,$8,$9,$2,$3,0*%
G04 Aperture macros list end*
%ADD10RoundRect,0.075000X-0.548008X0.441942X0.441942X-0.548008X0.548008X-0.441942X-0.441942X0.548008X0*%
%ADD11RoundRect,0.075000X-0.548008X-0.441942X-0.441942X-0.548008X0.548008X0.441942X0.441942X0.548008X0*%
G04 APERTURE END LIST*
D10*
%TO.C,U1*%
X104218819Y-95465519D03*
X103865266Y-95819072D03*
X103511713Y-96172625D03*
X103158159Y-96526179D03*
X102804606Y-96879732D03*
X102451052Y-97233286D03*
X102097499Y-97586839D03*
X101743946Y-97940392D03*
X101390392Y-98293946D03*
X101036839Y-98647499D03*
X100683286Y-99001052D03*
X100329732Y-99354606D03*
X99976179Y-99708159D03*
X99622625Y-100061713D03*
X99269072Y-100415266D03*
X98915519Y-100768819D03*
D11*
X98915519Y-103491181D03*
X99269072Y-103844734D03*
X99622625Y-104198287D03*
X99976179Y-104551841D03*
X100329732Y-104905394D03*
X100683286Y-105258948D03*
X101036839Y-105612501D03*
X101390392Y-105966054D03*
X101743946Y-106319608D03*
X102097499Y-106673161D03*
X102451052Y-107026714D03*
X102804606Y-107380268D03*
X103158159Y-107733821D03*
X103511713Y-108087375D03*
X103865266Y-108440928D03*
X104218819Y-108794481D03*
D10*
X106941181Y-108794481D03*
X107294734Y-108440928D03*
X107648287Y-108087375D03*
X108001841Y-107733821D03*
X108355394Y-107380268D03*
X108708948Y-107026714D03*
X109062501Y-106673161D03*
X109416054Y-106319608D03*
X109769608Y-105966054D03*
X110123161Y-105612501D03*
X110476714Y-105258948D03*
X110830268Y-104905394D03*
X111183821Y-104551841D03*
X111537375Y-104198287D03*
X111890928Y-103844734D03*
X112244481Y-103491181D03*
D11*
X112244481Y-100768819D03*
X111890928Y-100415266D03*
X111537375Y-100061713D03*
X111183821Y-99708159D03*
X110830268Y-99354606D03*
X110476714Y-99001052D03*
X110123161Y-98647499D03*
X109769608Y-98293946D03*
X109416054Y-97940392D03*
X109062501Y-97586839D03*
X108708948Y-97233286D03*
X108355394Y-96879732D03*
X108001841Y-96526179D03*
X107648287Y-96172625D03*
X107294734Y-95819072D03*
X106941181Y-95465519D03*
%TD*%
M02*
