M48
; DRILL file {KiCad 8.0.6} date 2025-01-17T23:36:14+0900
; FORMAT={-:-/ absolute / metric / decimal}
; #@! TF.CreationDate,2025-01-17T23:36:14+09:00
; #@! TF.GenerationSoftware,Kicad,Pcbnew,8.0.6
; #@! TF.FileFunction,Plated,1,2,PTH
FMAT,2
METRIC
; #@! TA.AperFunction,Plated,PTH,ComponentDrill
T1C1.000
%
G90
G05
T1
X94.15Y-62.76
X94.15Y-65.3
X94.15Y-67.84
X94.15Y-70.38
X94.15Y-72.92
X94.15Y-75.46
X94.15Y-78.0
X94.15Y-80.54
X94.15Y-83.08
X94.15Y-85.62
X94.15Y-88.16
X94.15Y-90.7
X94.15Y-93.24
X94.15Y-95.78
X94.15Y-98.32
X94.15Y-100.86
X94.15Y-103.4
X94.15Y-105.94
X94.15Y-108.48
X94.15Y-111.02
X94.15Y-113.56
X94.15Y-116.1
X94.15Y-118.64
X94.15Y-121.18
X94.15Y-123.72
X94.15Y-126.26
X94.15Y-128.8
X94.15Y-131.34
X94.15Y-133.88
X94.15Y-136.42
X94.15Y-138.96
X94.15Y-141.5
X117.01Y-62.76
X117.01Y-65.3
X117.01Y-67.84
X117.01Y-70.38
X117.01Y-72.92
X117.01Y-75.46
X117.01Y-78.0
X117.01Y-80.54
X117.01Y-83.08
X117.01Y-85.62
X117.01Y-88.16
X117.01Y-90.7
X117.01Y-93.24
X117.01Y-95.78
X117.01Y-98.32
X117.01Y-100.86
X117.01Y-103.4
X117.01Y-105.94
X117.01Y-108.48
X117.01Y-111.02
X117.01Y-113.56
X117.01Y-116.1
X117.01Y-118.64
X117.01Y-121.18
X117.01Y-123.72
X117.01Y-126.26
X117.01Y-128.8
X117.01Y-131.34
X117.01Y-133.88
X117.01Y-136.42
X117.01Y-138.96
X117.01Y-141.5
M30
