%TF.GenerationSoftware,KiCad,Pcbnew,8.0.6*%
%TF.CreationDate,2025-01-17T21:46:12+09:00*%
%TF.ProjectId,f446re-qpf64-to-dip,66343436-7265-42d7-9170-6636342d746f,rev?*%
%TF.SameCoordinates,Original*%
%TF.FileFunction,Copper,L1,Top*%
%TF.FilePolarity,Positive*%
%FSLAX46Y46*%
G04 Gerber Fmt 4.6, Leading zero omitted, Abs format (unit mm)*
G04 Created by KiCad (PCBNEW 8.0.6) date 2025-01-17 21:46:12*
%MOMM*%
%LPD*%
G01*
G04 APERTURE LIST*
G04 Aperture macros list*
%AMRoundRect*
0 Rectangle with rounded corners*
0 $1 Rounding radius*
0 $2 $3 $4 $5 $6 $7 $8 $9 X,Y pos of 4 corners*
0 Add a 4 corners polygon primitive as box body*
4,1,4,$2,$3,$4,$5,$6,$7,$8,$9,$2,$3,0*
0 Add four circle primitives for the rounded corners*
1,1,$1+$1,$2,$3*
1,1,$1+$1,$4,$5*
1,1,$1+$1,$6,$7*
1,1,$1+$1,$8,$9*
0 Add four rect primitives between the rounded corners*
20,1,$1+$1,$2,$3,$4,$5,0*
20,1,$1+$1,$4,$5,$6,$7,0*
20,1,$1+$1,$6,$7,$8,$9,0*
20,1,$1+$1,$8,$9,$2,$3,0*%
G04 Aperture macros list end*
%ADD10C,0.300000*%
%TA.AperFunction,NonConductor*%
%ADD11C,0.300000*%
%TD*%
%TA.AperFunction,SMDPad,CuDef*%
%ADD12RoundRect,0.075000X-0.548008X0.441942X0.441942X-0.548008X0.548008X-0.441942X-0.441942X0.548008X0*%
%TD*%
%TA.AperFunction,SMDPad,CuDef*%
%ADD13RoundRect,0.075000X-0.548008X-0.441942X-0.441942X-0.548008X0.548008X0.441942X0.441942X0.548008X0*%
%TD*%
%TA.AperFunction,ComponentPad*%
%ADD14R,1.700000X1.700000*%
%TD*%
%TA.AperFunction,ComponentPad*%
%ADD15O,1.700000X1.700000*%
%TD*%
%TA.AperFunction,Conductor*%
%ADD16C,0.250000*%
%TD*%
G04 APERTURE END LIST*
D10*
D11*
G36*
X98535073Y-140602052D02*
G01*
X98611306Y-140615779D01*
X98681193Y-140638657D01*
X98753292Y-140676009D01*
X98778192Y-140693098D01*
X98839123Y-140745992D01*
X98891857Y-140809052D01*
X98931274Y-140872570D01*
X98964415Y-140943871D01*
X98972732Y-140965673D01*
X98997856Y-141046316D01*
X99014480Y-141120573D01*
X99026570Y-141199571D01*
X99034126Y-141283308D01*
X99036960Y-141356710D01*
X99037212Y-141386992D01*
X99034922Y-141468651D01*
X99028054Y-141547528D01*
X99016607Y-141623623D01*
X99008269Y-141664696D01*
X98986244Y-141742856D01*
X98956348Y-141815220D01*
X98918581Y-141881788D01*
X98910083Y-141894406D01*
X98862205Y-141952896D01*
X98804668Y-142003800D01*
X98737470Y-142047120D01*
X98722871Y-142054874D01*
X98799654Y-142070474D01*
X98874134Y-142092628D01*
X98923639Y-142112759D01*
X98987396Y-142149578D01*
X99042930Y-142197521D01*
X99065788Y-142223401D01*
X99107451Y-142284435D01*
X99141115Y-142352513D01*
X99165439Y-142416842D01*
X98876744Y-142515760D01*
X98846455Y-142448283D01*
X98811401Y-142382158D01*
X98774528Y-142324518D01*
X98725343Y-142267937D01*
X98662231Y-142220934D01*
X98637142Y-142207648D01*
X98562482Y-142182267D01*
X98486841Y-142170897D01*
X98424651Y-142168447D01*
X98340660Y-142163357D01*
X98263629Y-142148089D01*
X98193557Y-142122642D01*
X98118655Y-142078670D01*
X98053774Y-142020040D01*
X98007362Y-141959986D01*
X97967783Y-141890899D01*
X97934912Y-141814155D01*
X97908749Y-141729756D01*
X97892649Y-141656723D01*
X97880843Y-141578791D01*
X97873329Y-141495958D01*
X97870109Y-141408225D01*
X97869975Y-141385526D01*
X97870070Y-141381863D01*
X98235240Y-141381863D01*
X98236376Y-141464996D01*
X98239784Y-141540830D01*
X98246872Y-141622198D01*
X98259277Y-141703843D01*
X98278906Y-141779634D01*
X98281769Y-141787794D01*
X98318591Y-141855221D01*
X98376451Y-141900547D01*
X98452494Y-141915655D01*
X98524951Y-141903097D01*
X98585315Y-141860275D01*
X98622610Y-141794973D01*
X98625418Y-141787062D01*
X98644492Y-141713514D01*
X98656711Y-141633983D01*
X98663864Y-141554539D01*
X98667483Y-141480386D01*
X98668973Y-141399006D01*
X98669016Y-141381863D01*
X98667933Y-141298765D01*
X98664686Y-141223038D01*
X98657933Y-141141894D01*
X98646115Y-141060640D01*
X98627413Y-140985467D01*
X98624685Y-140977397D01*
X98588979Y-140910356D01*
X98530694Y-140865290D01*
X98452494Y-140850268D01*
X98375330Y-140865333D01*
X98317127Y-140910529D01*
X98280669Y-140977763D01*
X98260794Y-141050830D01*
X98248062Y-141130053D01*
X98240608Y-141209316D01*
X98236837Y-141283378D01*
X98235285Y-141364721D01*
X98235240Y-141381863D01*
X97870070Y-141381863D01*
X97872229Y-141298264D01*
X97878991Y-141215356D01*
X97890261Y-141136801D01*
X97906039Y-141062599D01*
X97930144Y-140981533D01*
X97934089Y-140970436D01*
X97965277Y-140896930D01*
X98002741Y-140830928D01*
X98053242Y-140764685D01*
X98111940Y-140708242D01*
X98127896Y-140695662D01*
X98196818Y-140652706D01*
X98273892Y-140622023D01*
X98348018Y-140605243D01*
X98428386Y-140597860D01*
X98452494Y-140597477D01*
X98535073Y-140602052D01*
G37*
G36*
X99677983Y-140878845D02*
G01*
X99677983Y-141282578D01*
X100201517Y-141282578D01*
X100201517Y-141535369D01*
X99677983Y-141535369D01*
X99677983Y-142132909D01*
X99323709Y-142132909D01*
X99323709Y-140626053D01*
X100304832Y-140626053D01*
X100268196Y-140878845D01*
X99677983Y-140878845D01*
G37*
G36*
X101060058Y-140646278D02*
G01*
X101146271Y-140654022D01*
X101225795Y-140667723D01*
X101298627Y-140687381D01*
X101377195Y-140718834D01*
X101446129Y-140758865D01*
X101456681Y-140766371D01*
X101513456Y-140816538D01*
X101558485Y-140875542D01*
X101591767Y-140943381D01*
X101613302Y-141020055D01*
X101623091Y-141105565D01*
X101623743Y-141136032D01*
X101620185Y-141209898D01*
X101607402Y-141287190D01*
X101581909Y-141365056D01*
X101549371Y-141426193D01*
X101503020Y-141485882D01*
X101447220Y-141536355D01*
X101381973Y-141577613D01*
X101341643Y-141596552D01*
X101272263Y-141621076D01*
X101197479Y-141638592D01*
X101117291Y-141649103D01*
X101042693Y-141652551D01*
X101031699Y-141652606D01*
X100870132Y-141652606D01*
X100870132Y-142156357D01*
X100516591Y-142156357D01*
X100516591Y-141399815D01*
X100870132Y-141399815D01*
X101008984Y-141399815D01*
X101084193Y-141392412D01*
X101157224Y-141364575D01*
X101193632Y-141337166D01*
X101236566Y-141274232D01*
X101255799Y-141202184D01*
X101259944Y-141138963D01*
X101250477Y-141056789D01*
X101215502Y-140982407D01*
X101154757Y-140931166D01*
X101082178Y-140905664D01*
X101007233Y-140897399D01*
X100990666Y-140897163D01*
X100870132Y-140897163D01*
X100870132Y-141399815D01*
X100516591Y-141399815D01*
X100516591Y-140644371D01*
X100986270Y-140644371D01*
X101060058Y-140646278D01*
G37*
G36*
X102505748Y-140607080D02*
G01*
X102582685Y-140621907D01*
X102608531Y-140629717D01*
X102680594Y-140659056D01*
X102744286Y-140696929D01*
X102752145Y-140702623D01*
X102623185Y-140917679D01*
X102558012Y-140880230D01*
X102530861Y-140870418D01*
X102458390Y-140856336D01*
X102434508Y-140855397D01*
X102355517Y-140868082D01*
X102285791Y-140906134D01*
X102230443Y-140962742D01*
X102189581Y-141030510D01*
X102162504Y-141103497D01*
X102145950Y-141177202D01*
X102136057Y-141260095D01*
X102135188Y-141272686D01*
X102192145Y-141221938D01*
X102254666Y-141183403D01*
X102285397Y-141169738D01*
X102357716Y-141147198D01*
X102433488Y-141137055D01*
X102448429Y-141136765D01*
X102525928Y-141143692D01*
X102598232Y-141164471D01*
X102659455Y-141195383D01*
X102720102Y-141242047D01*
X102771571Y-141301439D01*
X102810397Y-141366475D01*
X102839957Y-141441337D01*
X102857200Y-141516910D01*
X102865083Y-141590607D01*
X102866451Y-141639783D01*
X102862398Y-141714155D01*
X102848150Y-141793882D01*
X102823642Y-141869436D01*
X102801605Y-141917487D01*
X102761016Y-141983967D01*
X102711792Y-142042449D01*
X102653932Y-142092932D01*
X102618056Y-142117522D01*
X102547809Y-142153473D01*
X102470606Y-142177659D01*
X102396142Y-142189279D01*
X102336688Y-142191894D01*
X102256439Y-142187373D01*
X102183030Y-142173811D01*
X102109485Y-142148136D01*
X102082431Y-142134741D01*
X102020243Y-142094642D01*
X101960513Y-142040945D01*
X101914102Y-141983414D01*
X101909874Y-141977205D01*
X101871670Y-141911724D01*
X101840408Y-141840305D01*
X101816086Y-141762946D01*
X101812055Y-141746762D01*
X101797001Y-141672122D01*
X101786874Y-141594932D01*
X101781674Y-141515192D01*
X101781233Y-141488841D01*
X102135188Y-141488841D01*
X102137854Y-141569839D01*
X102144579Y-141654114D01*
X102155195Y-141727379D01*
X102174563Y-141805399D01*
X102182449Y-141827362D01*
X102221151Y-141890980D01*
X102288099Y-141932119D01*
X102340718Y-141939103D01*
X102414890Y-141923185D01*
X102472571Y-141870801D01*
X102481402Y-141855938D01*
X102510341Y-141782623D01*
X102523960Y-141704750D01*
X102526099Y-141654804D01*
X102522650Y-141574494D01*
X102509068Y-141496094D01*
X102482501Y-141435352D01*
X102426253Y-141385326D01*
X102360136Y-141371238D01*
X102284015Y-141382723D01*
X102213189Y-141417177D01*
X102153973Y-141467824D01*
X102135188Y-141488841D01*
X101781233Y-141488841D01*
X101780914Y-141469790D01*
X101782819Y-141391449D01*
X101788534Y-141316024D01*
X101800423Y-141229364D01*
X101817798Y-141146902D01*
X101840660Y-141068638D01*
X101858949Y-141018796D01*
X101890557Y-140948432D01*
X101926853Y-140884071D01*
X101975123Y-140816569D01*
X102029775Y-140757236D01*
X102081699Y-140712882D01*
X102147871Y-140669913D01*
X102219443Y-140637498D01*
X102296415Y-140615637D01*
X102378786Y-140604329D01*
X102428279Y-140602606D01*
X102505748Y-140607080D01*
G37*
G36*
X104006577Y-141207107D02*
G01*
X104006577Y-141563946D01*
X104156420Y-141563946D01*
X104156420Y-141816737D01*
X104006577Y-141816737D01*
X104006577Y-142145000D01*
X103680512Y-142145000D01*
X103678314Y-141816737D01*
X103060258Y-141816737D01*
X103060258Y-141595087D01*
X103474616Y-140597843D01*
X103764410Y-140705921D01*
X103411235Y-141563946D01*
X103679413Y-141563946D01*
X103719347Y-141207107D01*
X104006577Y-141207107D01*
G37*
G36*
X106726831Y-142084183D02*
G01*
X106662838Y-142120948D01*
X106593871Y-142150315D01*
X106564898Y-142160387D01*
X106490658Y-142179587D01*
X106416721Y-142189402D01*
X106352041Y-142191894D01*
X106272017Y-142187798D01*
X106188912Y-142172666D01*
X106116852Y-142146385D01*
X106048021Y-142102696D01*
X106019016Y-142075390D01*
X105971571Y-142011757D01*
X105937683Y-141937729D01*
X105919150Y-141864426D01*
X105910995Y-141783165D01*
X105910572Y-141758485D01*
X105910572Y-141230554D01*
X105670237Y-141230554D01*
X105670237Y-140996081D01*
X105910572Y-140996081D01*
X105910572Y-140745488D01*
X106250558Y-140703722D01*
X106250558Y-140996081D01*
X106619120Y-140996081D01*
X106585781Y-141230554D01*
X106250558Y-141230554D01*
X106250558Y-141751524D01*
X106260266Y-141824797D01*
X106289392Y-141873890D01*
X106355968Y-141905374D01*
X106413224Y-141910526D01*
X106487989Y-141904373D01*
X106523499Y-141896238D01*
X106593017Y-141869723D01*
X106613625Y-141858869D01*
X106726831Y-142084183D01*
G37*
G36*
X107558472Y-140957980D02*
G01*
X107637699Y-140971140D01*
X107710330Y-140993872D01*
X107776368Y-141026175D01*
X107784159Y-141030886D01*
X107849206Y-141078854D01*
X107905037Y-141136618D01*
X107951653Y-141204176D01*
X107973569Y-141245942D01*
X108002260Y-141318161D01*
X108022753Y-141396334D01*
X108033961Y-141469619D01*
X108038892Y-141547462D01*
X108039148Y-141570540D01*
X108035570Y-141658377D01*
X108024837Y-141740077D01*
X108006948Y-141815641D01*
X107981904Y-141885070D01*
X107942405Y-141960285D01*
X107892602Y-142026664D01*
X107833689Y-142082816D01*
X107766585Y-142127351D01*
X107691288Y-142160268D01*
X107607800Y-142181567D01*
X107531969Y-142190442D01*
X107483740Y-142191894D01*
X107404381Y-142187914D01*
X107330711Y-142175973D01*
X107249816Y-142151136D01*
X107177113Y-142114836D01*
X107112601Y-142067073D01*
X107074145Y-142028862D01*
X107024467Y-141963153D01*
X106985067Y-141888298D01*
X106960085Y-141818934D01*
X106942241Y-141743220D01*
X106931534Y-141661154D01*
X106927965Y-141572739D01*
X106927994Y-141572006D01*
X107278942Y-141572006D01*
X107281344Y-141651534D01*
X107289971Y-141729931D01*
X107307175Y-141802197D01*
X107329134Y-141852274D01*
X107378864Y-141908492D01*
X107452434Y-141936983D01*
X107483740Y-141939103D01*
X107559567Y-141924773D01*
X107621076Y-141877288D01*
X107637979Y-141852274D01*
X107666555Y-141779723D01*
X107681113Y-141701235D01*
X107687387Y-141617017D01*
X107688171Y-141569808D01*
X107685769Y-141491992D01*
X107677143Y-141415038D01*
X107659938Y-141343738D01*
X107637979Y-141293935D01*
X107588487Y-141237717D01*
X107515037Y-141209227D01*
X107483740Y-141207107D01*
X107407852Y-141221558D01*
X107346143Y-141269443D01*
X107329134Y-141294668D01*
X107300558Y-141366779D01*
X107286001Y-141443876D01*
X107279727Y-141526079D01*
X107278942Y-141572006D01*
X106927994Y-141572006D01*
X106931121Y-141494004D01*
X106940588Y-141419687D01*
X106959135Y-141340163D01*
X106985925Y-141266409D01*
X106993911Y-141248872D01*
X107030685Y-141183110D01*
X107080704Y-141118324D01*
X107139881Y-141063275D01*
X107184420Y-141031985D01*
X107249839Y-140998005D01*
X107321532Y-140973733D01*
X107399499Y-140959170D01*
X107472867Y-140954391D01*
X107483740Y-140954316D01*
X107558472Y-140957980D01*
G37*
G36*
X109988381Y-140646748D02*
G01*
X110066665Y-140653877D01*
X110143559Y-140665759D01*
X110185676Y-140674413D01*
X110258870Y-140695047D01*
X110327601Y-140723563D01*
X110391869Y-140759962D01*
X110425645Y-140783590D01*
X110481931Y-140833555D01*
X110531261Y-140894010D01*
X110573636Y-140964956D01*
X110594173Y-141008904D01*
X110621581Y-141087077D01*
X110639140Y-141164419D01*
X110649418Y-141237354D01*
X110655291Y-141316420D01*
X110656821Y-141386992D01*
X110654721Y-141469900D01*
X110648423Y-141547167D01*
X110635768Y-141630182D01*
X110617398Y-141705518D01*
X110597103Y-141763981D01*
X110564589Y-141834071D01*
X110521660Y-141903124D01*
X110472007Y-141961802D01*
X110435170Y-141995157D01*
X110375472Y-142037847D01*
X110303973Y-142076172D01*
X110234975Y-142102467D01*
X110202896Y-142111660D01*
X110129219Y-142127776D01*
X110054093Y-142138618D01*
X109977518Y-142144186D01*
X109934351Y-142145000D01*
X109531716Y-142145000D01*
X109531716Y-141892208D01*
X109884891Y-141892208D01*
X109960362Y-141892208D01*
X110035971Y-141885073D01*
X110108740Y-141861431D01*
X110132554Y-141848977D01*
X110191388Y-141798317D01*
X110231883Y-141734467D01*
X110248691Y-141695471D01*
X110270909Y-141617926D01*
X110282759Y-141543474D01*
X110288807Y-141469275D01*
X110290823Y-141386625D01*
X110288737Y-141301955D01*
X110282478Y-141226822D01*
X110270216Y-141152633D01*
X110247226Y-141077414D01*
X110210097Y-141008257D01*
X110159874Y-140954616D01*
X110128524Y-140934898D01*
X110059551Y-140909103D01*
X109983426Y-140897752D01*
X109960362Y-140897163D01*
X109884891Y-140897163D01*
X109884891Y-141892208D01*
X109531716Y-141892208D01*
X109531716Y-140644371D01*
X109908705Y-140644371D01*
X109988381Y-140646748D01*
G37*
G36*
X111841277Y-140644371D02*
G01*
X111841277Y-140897163D01*
X111533531Y-140897163D01*
X111533531Y-141892208D01*
X111841277Y-141892208D01*
X111841277Y-142145000D01*
X110872243Y-142145000D01*
X110872243Y-141892208D01*
X111180355Y-141892208D01*
X111180355Y-140897163D01*
X110872243Y-140897163D01*
X110872243Y-140644371D01*
X111841277Y-140644371D01*
G37*
G36*
X112679667Y-140646278D02*
G01*
X112765880Y-140654022D01*
X112845404Y-140667723D01*
X112918237Y-140687381D01*
X112996804Y-140718834D01*
X113065738Y-140758865D01*
X113076290Y-140766371D01*
X113133066Y-140816538D01*
X113178094Y-140875542D01*
X113211376Y-140943381D01*
X113232911Y-141020055D01*
X113242700Y-141105565D01*
X113243353Y-141136032D01*
X113239794Y-141209898D01*
X113227011Y-141287190D01*
X113201518Y-141365056D01*
X113168981Y-141426193D01*
X113122629Y-141485882D01*
X113066829Y-141536355D01*
X113001583Y-141577613D01*
X112961252Y-141596552D01*
X112891872Y-141621076D01*
X112817088Y-141638592D01*
X112736900Y-141649103D01*
X112662302Y-141652551D01*
X112651308Y-141652606D01*
X112489741Y-141652606D01*
X112489741Y-142156357D01*
X112136200Y-142156357D01*
X112136200Y-141399815D01*
X112489741Y-141399815D01*
X112628593Y-141399815D01*
X112703802Y-141392412D01*
X112776834Y-141364575D01*
X112813241Y-141337166D01*
X112856175Y-141274232D01*
X112875408Y-141202184D01*
X112879553Y-141138963D01*
X112870086Y-141056789D01*
X112835112Y-140982407D01*
X112774366Y-140931166D01*
X112701788Y-140905664D01*
X112626842Y-140897399D01*
X112610275Y-140897163D01*
X112489741Y-140897163D01*
X112489741Y-141399815D01*
X112136200Y-141399815D01*
X112136200Y-140644371D01*
X112605879Y-140644371D01*
X112679667Y-140646278D01*
G37*
D12*
%TO.P,U1,1,VBAT*%
%TO.N,Net-(J1-Pin_1)*%
X104218819Y-95465519D03*
%TO.P,U1,2,PC13*%
%TO.N,Net-(J1-Pin_2)*%
X103865266Y-95819072D03*
%TO.P,U1,3,PC14*%
%TO.N,Net-(J1-Pin_3)*%
X103511713Y-96172625D03*
%TO.P,U1,4,PC15*%
%TO.N,Net-(J1-Pin_4)*%
X103158159Y-96526179D03*
%TO.P,U1,5,PH0*%
%TO.N,Net-(J1-Pin_5)*%
X102804606Y-96879732D03*
%TO.P,U1,6,PH1*%
%TO.N,Net-(J1-Pin_6)*%
X102451052Y-97233286D03*
%TO.P,U1,7,NRST*%
%TO.N,Net-(J1-Pin_7)*%
X102097499Y-97586839D03*
%TO.P,U1,8,PC0*%
%TO.N,Net-(J1-Pin_8)*%
X101743946Y-97940392D03*
%TO.P,U1,9,PC1*%
%TO.N,Net-(J1-Pin_9)*%
X101390392Y-98293946D03*
%TO.P,U1,10,PC2*%
%TO.N,Net-(J1-Pin_10)*%
X101036839Y-98647499D03*
%TO.P,U1,11,PC3*%
%TO.N,Net-(J1-Pin_11)*%
X100683286Y-99001052D03*
%TO.P,U1,12,VSSA*%
%TO.N,Net-(J1-Pin_12)*%
X100329732Y-99354606D03*
%TO.P,U1,13,VDDA*%
%TO.N,Net-(J1-Pin_13)*%
X99976179Y-99708159D03*
%TO.P,U1,14,PA0*%
%TO.N,Net-(J1-Pin_14)*%
X99622625Y-100061713D03*
%TO.P,U1,15,PA1*%
%TO.N,Net-(J1-Pin_15)*%
X99269072Y-100415266D03*
%TO.P,U1,16,PA2*%
%TO.N,Net-(J1-Pin_16)*%
X98915519Y-100768819D03*
D13*
%TO.P,U1,17,PA3*%
%TO.N,Net-(J1-Pin_17)*%
X98915519Y-103491181D03*
%TO.P,U1,18,VSS*%
%TO.N,Net-(J1-Pin_18)*%
X99269072Y-103844734D03*
%TO.P,U1,19,VDD*%
%TO.N,Net-(J1-Pin_19)*%
X99622625Y-104198287D03*
%TO.P,U1,20,PA4*%
%TO.N,Net-(J1-Pin_20)*%
X99976179Y-104551841D03*
%TO.P,U1,21,PA5*%
%TO.N,Net-(J1-Pin_21)*%
X100329732Y-104905394D03*
%TO.P,U1,22,PA6*%
%TO.N,Net-(J1-Pin_22)*%
X100683286Y-105258948D03*
%TO.P,U1,23,PA7*%
%TO.N,Net-(J1-Pin_23)*%
X101036839Y-105612501D03*
%TO.P,U1,24,PC4*%
%TO.N,Net-(J1-Pin_24)*%
X101390392Y-105966054D03*
%TO.P,U1,25,PC5*%
%TO.N,Net-(J1-Pin_25)*%
X101743946Y-106319608D03*
%TO.P,U1,26,PB0*%
%TO.N,Net-(J1-Pin_26)*%
X102097499Y-106673161D03*
%TO.P,U1,27,PB1*%
%TO.N,Net-(J1-Pin_27)*%
X102451052Y-107026714D03*
%TO.P,U1,28,PB2*%
%TO.N,Net-(J1-Pin_28)*%
X102804606Y-107380268D03*
%TO.P,U1,29,PB10*%
%TO.N,Net-(J1-Pin_29)*%
X103158159Y-107733821D03*
%TO.P,U1,30,VCAP_1*%
%TO.N,Net-(J1-Pin_30)*%
X103511713Y-108087375D03*
%TO.P,U1,31,VSS*%
%TO.N,Net-(J1-Pin_18)*%
X103865266Y-108440928D03*
%TO.P,U1,32,VDD*%
%TO.N,Net-(J1-Pin_32)*%
X104218819Y-108794481D03*
D12*
%TO.P,U1,33,PB12*%
%TO.N,Net-(J2-Pin_1)*%
X106941181Y-108794481D03*
%TO.P,U1,34,PB13*%
%TO.N,Net-(J2-Pin_2)*%
X107294734Y-108440928D03*
%TO.P,U1,35,PB14*%
%TO.N,Net-(J2-Pin_3)*%
X107648287Y-108087375D03*
%TO.P,U1,36,PB15*%
%TO.N,Net-(J2-Pin_4)*%
X108001841Y-107733821D03*
%TO.P,U1,37,PC6*%
%TO.N,Net-(J2-Pin_5)*%
X108355394Y-107380268D03*
%TO.P,U1,38,PC7*%
%TO.N,Net-(J2-Pin_6)*%
X108708948Y-107026714D03*
%TO.P,U1,39,PC8*%
%TO.N,Net-(J2-Pin_7)*%
X109062501Y-106673161D03*
%TO.P,U1,40,PC9*%
%TO.N,Net-(J2-Pin_8)*%
X109416054Y-106319608D03*
%TO.P,U1,41,PA8*%
%TO.N,Net-(J2-Pin_9)*%
X109769608Y-105966054D03*
%TO.P,U1,42,PA9*%
%TO.N,Net-(J2-Pin_10)*%
X110123161Y-105612501D03*
%TO.P,U1,43,PA10*%
%TO.N,Net-(J2-Pin_11)*%
X110476714Y-105258948D03*
%TO.P,U1,44,PA11*%
%TO.N,Net-(J2-Pin_12)*%
X110830268Y-104905394D03*
%TO.P,U1,45,PA12*%
%TO.N,Net-(J2-Pin_13)*%
X111183821Y-104551841D03*
%TO.P,U1,46,PA13*%
%TO.N,Net-(J2-Pin_14)*%
X111537375Y-104198287D03*
%TO.P,U1,47,VSS*%
%TO.N,Net-(J1-Pin_18)*%
X111890928Y-103844734D03*
%TO.P,U1,48,VDD*%
%TO.N,Net-(J2-Pin_16)*%
X112244481Y-103491181D03*
D13*
%TO.P,U1,49,PA14*%
%TO.N,Net-(J2-Pin_17)*%
X112244481Y-100768819D03*
%TO.P,U1,50,PA15*%
%TO.N,Net-(J2-Pin_18)*%
X111890928Y-100415266D03*
%TO.P,U1,51,PC10*%
%TO.N,Net-(J2-Pin_19)*%
X111537375Y-100061713D03*
%TO.P,U1,52,PC11*%
%TO.N,Net-(J2-Pin_20)*%
X111183821Y-99708159D03*
%TO.P,U1,53,PC12*%
%TO.N,Net-(J2-Pin_21)*%
X110830268Y-99354606D03*
%TO.P,U1,54,PD2*%
%TO.N,Net-(J2-Pin_22)*%
X110476714Y-99001052D03*
%TO.P,U1,55,PB3*%
%TO.N,Net-(J2-Pin_23)*%
X110123161Y-98647499D03*
%TO.P,U1,56,PB4*%
%TO.N,Net-(J2-Pin_24)*%
X109769608Y-98293946D03*
%TO.P,U1,57,PB5*%
%TO.N,Net-(J2-Pin_25)*%
X109416054Y-97940392D03*
%TO.P,U1,58,PB6*%
%TO.N,Net-(J2-Pin_26)*%
X109062501Y-97586839D03*
%TO.P,U1,59,PB7*%
%TO.N,Net-(J2-Pin_27)*%
X108708948Y-97233286D03*
%TO.P,U1,60,BOOT0*%
%TO.N,Net-(J1-Pin_7)*%
X108355394Y-96879732D03*
%TO.P,U1,61,PB8*%
%TO.N,Net-(J2-Pin_29)*%
X108001841Y-96526179D03*
%TO.P,U1,62,PB9*%
%TO.N,Net-(J2-Pin_30)*%
X107648287Y-96172625D03*
%TO.P,U1,63,VSS*%
%TO.N,Net-(J1-Pin_18)*%
X107294734Y-95819072D03*
%TO.P,U1,64,VDD*%
%TO.N,Net-(J2-Pin_32)*%
X106941181Y-95465519D03*
%TD*%
D14*
%TO.P,J1,1,Pin_1*%
%TO.N,Net-(J1-Pin_1)*%
X94150000Y-62760000D03*
D15*
%TO.P,J1,2,Pin_2*%
%TO.N,Net-(J1-Pin_2)*%
X94150000Y-65300000D03*
%TO.P,J1,3,Pin_3*%
%TO.N,Net-(J1-Pin_3)*%
X94150000Y-67840000D03*
%TO.P,J1,4,Pin_4*%
%TO.N,Net-(J1-Pin_4)*%
X94150000Y-70380000D03*
%TO.P,J1,5,Pin_5*%
%TO.N,Net-(J1-Pin_5)*%
X94150000Y-72920000D03*
%TO.P,J1,6,Pin_6*%
%TO.N,Net-(J1-Pin_6)*%
X94150000Y-75460000D03*
%TO.P,J1,7,Pin_7*%
%TO.N,Net-(J1-Pin_7)*%
X94150000Y-78000000D03*
%TO.P,J1,8,Pin_8*%
%TO.N,Net-(J1-Pin_8)*%
X94150000Y-80540000D03*
%TO.P,J1,9,Pin_9*%
%TO.N,Net-(J1-Pin_9)*%
X94150000Y-83080000D03*
%TO.P,J1,10,Pin_10*%
%TO.N,Net-(J1-Pin_10)*%
X94150000Y-85620000D03*
%TO.P,J1,11,Pin_11*%
%TO.N,Net-(J1-Pin_11)*%
X94150000Y-88160000D03*
%TO.P,J1,12,Pin_12*%
%TO.N,Net-(J1-Pin_12)*%
X94150000Y-90700000D03*
%TO.P,J1,13,Pin_13*%
%TO.N,Net-(J1-Pin_13)*%
X94150000Y-93240000D03*
%TO.P,J1,14,Pin_14*%
%TO.N,Net-(J1-Pin_14)*%
X94150000Y-95780000D03*
%TO.P,J1,15,Pin_15*%
%TO.N,Net-(J1-Pin_15)*%
X94150000Y-98320000D03*
%TO.P,J1,16,Pin_16*%
%TO.N,Net-(J1-Pin_16)*%
X94150000Y-100860000D03*
%TO.P,J1,17,Pin_17*%
%TO.N,Net-(J1-Pin_17)*%
X94150000Y-103400000D03*
%TO.P,J1,18,Pin_18*%
%TO.N,Net-(J1-Pin_18)*%
X94150000Y-105940000D03*
%TO.P,J1,19,Pin_19*%
%TO.N,Net-(J1-Pin_19)*%
X94150000Y-108480000D03*
%TO.P,J1,20,Pin_20*%
%TO.N,Net-(J1-Pin_20)*%
X94150000Y-111020000D03*
%TO.P,J1,21,Pin_21*%
%TO.N,Net-(J1-Pin_21)*%
X94150000Y-113560000D03*
%TO.P,J1,22,Pin_22*%
%TO.N,Net-(J1-Pin_22)*%
X94150000Y-116100000D03*
%TO.P,J1,23,Pin_23*%
%TO.N,Net-(J1-Pin_23)*%
X94150000Y-118640000D03*
%TO.P,J1,24,Pin_24*%
%TO.N,Net-(J1-Pin_24)*%
X94150000Y-121180000D03*
%TO.P,J1,25,Pin_25*%
%TO.N,Net-(J1-Pin_25)*%
X94150000Y-123720000D03*
%TO.P,J1,26,Pin_26*%
%TO.N,Net-(J1-Pin_26)*%
X94150000Y-126260000D03*
%TO.P,J1,27,Pin_27*%
%TO.N,Net-(J1-Pin_27)*%
X94150000Y-128800000D03*
%TO.P,J1,28,Pin_28*%
%TO.N,Net-(J1-Pin_28)*%
X94150000Y-131340000D03*
%TO.P,J1,29,Pin_29*%
%TO.N,Net-(J1-Pin_29)*%
X94150000Y-133880000D03*
%TO.P,J1,30,Pin_30*%
%TO.N,Net-(J1-Pin_30)*%
X94150000Y-136420000D03*
%TO.P,J1,31,Pin_31*%
%TO.N,Net-(J1-Pin_18)*%
X94150000Y-138960000D03*
%TO.P,J1,32,Pin_32*%
%TO.N,Net-(J1-Pin_32)*%
X94150000Y-141500000D03*
%TD*%
D14*
%TO.P,J2,1,Pin_1*%
%TO.N,Net-(J2-Pin_1)*%
X117010000Y-141500000D03*
D15*
%TO.P,J2,2,Pin_2*%
%TO.N,Net-(J2-Pin_2)*%
X117010000Y-138960000D03*
%TO.P,J2,3,Pin_3*%
%TO.N,Net-(J2-Pin_3)*%
X117010000Y-136420000D03*
%TO.P,J2,4,Pin_4*%
%TO.N,Net-(J2-Pin_4)*%
X117010000Y-133880000D03*
%TO.P,J2,5,Pin_5*%
%TO.N,Net-(J2-Pin_5)*%
X117010000Y-131340000D03*
%TO.P,J2,6,Pin_6*%
%TO.N,Net-(J2-Pin_6)*%
X117010000Y-128800000D03*
%TO.P,J2,7,Pin_7*%
%TO.N,Net-(J2-Pin_7)*%
X117010000Y-126260000D03*
%TO.P,J2,8,Pin_8*%
%TO.N,Net-(J2-Pin_8)*%
X117010000Y-123720000D03*
%TO.P,J2,9,Pin_9*%
%TO.N,Net-(J2-Pin_9)*%
X117010000Y-121180000D03*
%TO.P,J2,10,Pin_10*%
%TO.N,Net-(J2-Pin_10)*%
X117010000Y-118640000D03*
%TO.P,J2,11,Pin_11*%
%TO.N,Net-(J2-Pin_11)*%
X117010000Y-116100000D03*
%TO.P,J2,12,Pin_12*%
%TO.N,Net-(J2-Pin_12)*%
X117010000Y-113560000D03*
%TO.P,J2,13,Pin_13*%
%TO.N,Net-(J2-Pin_13)*%
X117010000Y-111020000D03*
%TO.P,J2,14,Pin_14*%
%TO.N,Net-(J2-Pin_14)*%
X117010000Y-108480000D03*
%TO.P,J2,15,Pin_15*%
%TO.N,Net-(J1-Pin_18)*%
X117010000Y-105940000D03*
%TO.P,J2,16,Pin_16*%
%TO.N,Net-(J2-Pin_16)*%
X117010000Y-103400000D03*
%TO.P,J2,17,Pin_17*%
%TO.N,Net-(J2-Pin_17)*%
X117010000Y-100860000D03*
%TO.P,J2,18,Pin_18*%
%TO.N,Net-(J2-Pin_18)*%
X117010000Y-98320000D03*
%TO.P,J2,19,Pin_19*%
%TO.N,Net-(J2-Pin_19)*%
X117010000Y-95780000D03*
%TO.P,J2,20,Pin_20*%
%TO.N,Net-(J2-Pin_20)*%
X117010000Y-93240000D03*
%TO.P,J2,21,Pin_21*%
%TO.N,Net-(J2-Pin_21)*%
X117010000Y-90700000D03*
%TO.P,J2,22,Pin_22*%
%TO.N,Net-(J2-Pin_22)*%
X117010000Y-88160000D03*
%TO.P,J2,23,Pin_23*%
%TO.N,Net-(J2-Pin_23)*%
X117010000Y-85620000D03*
%TO.P,J2,24,Pin_24*%
%TO.N,Net-(J2-Pin_24)*%
X117010000Y-83080000D03*
%TO.P,J2,25,Pin_25*%
%TO.N,Net-(J2-Pin_25)*%
X117010000Y-80540000D03*
%TO.P,J2,26,Pin_26*%
%TO.N,Net-(J2-Pin_26)*%
X117010000Y-78000000D03*
%TO.P,J2,27,Pin_27*%
%TO.N,Net-(J2-Pin_27)*%
X117010000Y-75460000D03*
%TO.P,J2,28,Pin_28*%
%TO.N,Net-(J1-Pin_7)*%
X117010000Y-72920000D03*
%TO.P,J2,29,Pin_29*%
%TO.N,Net-(J2-Pin_29)*%
X117010000Y-70380000D03*
%TO.P,J2,30,Pin_30*%
%TO.N,Net-(J2-Pin_30)*%
X117010000Y-67840000D03*
%TO.P,J2,31,Pin_31*%
%TO.N,Net-(J1-Pin_18)*%
X117010000Y-65300000D03*
%TO.P,J2,32,Pin_32*%
%TO.N,Net-(J2-Pin_32)*%
X117010000Y-62760000D03*
%TD*%
D16*
%TO.N,Net-(J1-Pin_4)*%
X102369342Y-95737362D02*
X102369342Y-78599342D01*
X102369342Y-78599342D02*
X94150000Y-70380000D01*
X103158159Y-96526179D02*
X102369342Y-95737362D01*
%TO.N,Net-(J1-Pin_14)*%
X99622625Y-100061713D02*
X95340912Y-95780000D01*
X95340912Y-95780000D02*
X94150000Y-95780000D01*
%TO.N,Net-(J1-Pin_2)*%
X103865266Y-95819072D02*
X103269342Y-95223148D01*
X103269342Y-95223148D02*
X103269342Y-74419342D01*
X103269342Y-74419342D02*
X94150000Y-65300000D01*
%TO.N,Net-(J1-Pin_22)*%
X99219342Y-111030658D02*
X94150000Y-116100000D01*
X99219342Y-106722892D02*
X99219342Y-111030658D01*
X100683286Y-105258948D02*
X99219342Y-106722892D01*
%TO.N,Net-(J1-Pin_9)*%
X100119342Y-89049342D02*
X94150000Y-83080000D01*
X101390392Y-98293946D02*
X100119342Y-97022896D01*
X100119342Y-97022896D02*
X100119342Y-89049342D01*
%TO.N,Net-(J1-Pin_7)*%
X101019342Y-84869342D02*
X94150000Y-78000000D01*
X102097499Y-97586839D02*
X101019342Y-96508682D01*
X108355394Y-96879732D02*
X109240658Y-95994468D01*
X101019342Y-96508682D02*
X101019342Y-84869342D01*
X109240658Y-80689342D02*
X117010000Y-72920000D01*
X109240658Y-95994468D02*
X109240658Y-80689342D01*
%TO.N,Net-(J1-Pin_30)*%
X102819342Y-127750658D02*
X94150000Y-136420000D01*
X103511713Y-108087375D02*
X102819342Y-108779746D01*
X102819342Y-108779746D02*
X102819342Y-127750658D01*
%TO.N,Net-(J1-Pin_21)*%
X98769342Y-108940658D02*
X94150000Y-113560000D01*
X98769342Y-106465784D02*
X98769342Y-108940658D01*
X100329732Y-104905394D02*
X98769342Y-106465784D01*
%TO.N,Net-(J1-Pin_27)*%
X101469342Y-121480658D02*
X94150000Y-128800000D01*
X102451052Y-107026714D02*
X101469342Y-108008424D01*
X101469342Y-108008424D02*
X101469342Y-121480658D01*
%TO.N,Net-(J1-Pin_11)*%
X99219342Y-97537108D02*
X99219342Y-93229342D01*
X100683286Y-99001052D02*
X99219342Y-97537108D01*
X99219342Y-93229342D02*
X94150000Y-88160000D01*
%TO.N,Net-(J1-Pin_15)*%
X97173806Y-98320000D02*
X94150000Y-98320000D01*
X99269072Y-100415266D02*
X97173806Y-98320000D01*
%TO.N,Net-(J1-Pin_29)*%
X103158159Y-107733821D02*
X102369342Y-108522638D01*
X102369342Y-125660658D02*
X94150000Y-133880000D01*
X102369342Y-108522638D02*
X102369342Y-125660658D01*
%TO.N,Net-(J1-Pin_19)*%
X95340912Y-108480000D02*
X94150000Y-108480000D01*
X99622625Y-104198287D02*
X95340912Y-108480000D01*
%TO.N,Net-(J1-Pin_26)*%
X102097499Y-106673161D02*
X101019342Y-107751318D01*
X101019342Y-107751318D02*
X101019342Y-119390658D01*
X101019342Y-119390658D02*
X94150000Y-126260000D01*
%TO.N,Net-(J1-Pin_10)*%
X101036839Y-98647499D02*
X99669342Y-97280002D01*
X99669342Y-91139342D02*
X94150000Y-85620000D01*
X99669342Y-97280002D02*
X99669342Y-91139342D01*
%TO.N,Net-(J1-Pin_24)*%
X100119342Y-115210658D02*
X94150000Y-121180000D01*
X100119342Y-107237104D02*
X100119342Y-115210658D01*
X101390392Y-105966054D02*
X100119342Y-107237104D01*
%TO.N,Net-(J1-Pin_1)*%
X103719342Y-94966042D02*
X103719342Y-72329342D01*
X103719342Y-72329342D02*
X94150000Y-62760000D01*
X104218819Y-95465519D02*
X103719342Y-94966042D01*
%TO.N,Net-(J1-Pin_3)*%
X102819342Y-95480254D02*
X102819342Y-76509342D01*
X103511713Y-96172625D02*
X102819342Y-95480254D01*
X102819342Y-76509342D02*
X94150000Y-67840000D01*
%TO.N,Net-(J1-Pin_32)*%
X103719342Y-131930658D02*
X94150000Y-141500000D01*
X103719342Y-109293958D02*
X103719342Y-131930658D01*
X104218819Y-108794481D02*
X103719342Y-109293958D01*
%TO.N,Net-(J1-Pin_16)*%
X95010000Y-100000000D02*
X94150000Y-100860000D01*
X98146700Y-100000000D02*
X95010000Y-100000000D01*
X98915519Y-100768819D02*
X98146700Y-100000000D01*
%TO.N,Net-(J1-Pin_12)*%
X98769342Y-97794216D02*
X98769342Y-95319342D01*
X100329732Y-99354606D02*
X98769342Y-97794216D01*
X98769342Y-95319342D02*
X94150000Y-90700000D01*
%TO.N,Net-(J1-Pin_6)*%
X101469342Y-82779342D02*
X94150000Y-75460000D01*
X101469342Y-96251576D02*
X101469342Y-82779342D01*
X102451052Y-97233286D02*
X101469342Y-96251576D01*
%TO.N,Net-(J1-Pin_5)*%
X101919342Y-95994468D02*
X101919342Y-80689342D01*
X102804606Y-96879732D02*
X101919342Y-95994468D01*
X101919342Y-80689342D02*
X94150000Y-72920000D01*
%TO.N,Net-(J1-Pin_25)*%
X100569342Y-107494212D02*
X100569342Y-117300658D01*
X100569342Y-117300658D02*
X94150000Y-123720000D01*
X101743946Y-106319608D02*
X100569342Y-107494212D01*
%TO.N,Net-(J1-Pin_20)*%
X98319342Y-106208678D02*
X98319342Y-106850658D01*
X98319342Y-106850658D02*
X94150000Y-111020000D01*
X99976179Y-104551841D02*
X98319342Y-106208678D01*
%TO.N,Net-(J1-Pin_28)*%
X102804606Y-107380268D02*
X101919342Y-108265532D01*
X101919342Y-108265532D02*
X101919342Y-123570658D01*
X101919342Y-123570658D02*
X94150000Y-131340000D01*
%TO.N,Net-(J1-Pin_8)*%
X101743946Y-97940392D02*
X100569342Y-96765788D01*
X100569342Y-86959342D02*
X94150000Y-80540000D01*
X100569342Y-96765788D02*
X100569342Y-86959342D01*
%TO.N,Net-(J1-Pin_23)*%
X99669342Y-113120658D02*
X94150000Y-118640000D01*
X101036839Y-105612501D02*
X99669342Y-106979998D01*
X99669342Y-106979998D02*
X99669342Y-113120658D01*
%TO.N,Net-(J1-Pin_13)*%
X99976179Y-99708159D02*
X98319342Y-98051322D01*
X98319342Y-97409342D02*
X94150000Y-93240000D01*
X98319342Y-98051322D02*
X98319342Y-97409342D01*
%TO.N,Net-(J1-Pin_17)*%
X98915519Y-103491181D02*
X98206700Y-104200000D01*
X98206700Y-104200000D02*
X94950000Y-104200000D01*
X94950000Y-104200000D02*
X94150000Y-103400000D01*
%TO.N,Net-(J2-Pin_12)*%
X112390658Y-108940658D02*
X117010000Y-113560000D01*
X110830268Y-104905394D02*
X112390658Y-106465784D01*
X112390658Y-106465784D02*
X112390658Y-108940658D01*
%TO.N,Net-(J2-Pin_16)*%
X116210000Y-104200000D02*
X117010000Y-103400000D01*
X112953300Y-104200000D02*
X116210000Y-104200000D01*
X112244481Y-103491181D02*
X112953300Y-104200000D01*
%TO.N,Net-(J2-Pin_23)*%
X111490658Y-97280002D02*
X111490658Y-91139342D01*
X111490658Y-91139342D02*
X117010000Y-85620000D01*
X110123161Y-98647499D02*
X111490658Y-97280002D01*
%TO.N,Net-(J2-Pin_11)*%
X110476714Y-105258948D02*
X111940658Y-106722892D01*
X111940658Y-106722892D02*
X111940658Y-111030658D01*
X111940658Y-111030658D02*
X117010000Y-116100000D01*
%TO.N,Net-(J2-Pin_22)*%
X110476714Y-99001052D02*
X111940658Y-97537108D01*
X111940658Y-97537108D02*
X111940658Y-93229342D01*
X111940658Y-93229342D02*
X117010000Y-88160000D01*
%TO.N,Net-(J2-Pin_27)*%
X108708948Y-97233286D02*
X109690658Y-96251576D01*
X109690658Y-96251576D02*
X109690658Y-82779342D01*
X109690658Y-82779342D02*
X117010000Y-75460000D01*
%TO.N,Net-(J2-Pin_17)*%
X113013300Y-100000000D02*
X116150000Y-100000000D01*
X116150000Y-100000000D02*
X117010000Y-100860000D01*
X112244481Y-100768819D02*
X113013300Y-100000000D01*
%TO.N,Net-(J2-Pin_5)*%
X108355394Y-107380268D02*
X109240658Y-108265532D01*
X109240658Y-108265532D02*
X109240658Y-123570658D01*
X109240658Y-123570658D02*
X117010000Y-131340000D01*
%TO.N,Net-(J2-Pin_32)*%
X107440658Y-72329342D02*
X117010000Y-62760000D01*
X107440658Y-94966042D02*
X107440658Y-72329342D01*
X106941181Y-95465519D02*
X107440658Y-94966042D01*
%TO.N,Net-(J2-Pin_30)*%
X108340658Y-95480254D02*
X108340658Y-76509342D01*
X108340658Y-76509342D02*
X117010000Y-67840000D01*
X107648287Y-96172625D02*
X108340658Y-95480254D01*
%TO.N,Net-(J2-Pin_25)*%
X110590658Y-86959342D02*
X117010000Y-80540000D01*
X110590658Y-96765788D02*
X110590658Y-86959342D01*
X109416054Y-97940392D02*
X110590658Y-96765788D01*
%TO.N,Net-(J2-Pin_2)*%
X107890658Y-109036852D02*
X107890658Y-129840658D01*
X107890658Y-129840658D02*
X117010000Y-138960000D01*
X107294734Y-108440928D02*
X107890658Y-109036852D01*
%TO.N,Net-(J2-Pin_6)*%
X109690658Y-108008424D02*
X109690658Y-121480658D01*
X109690658Y-121480658D02*
X117010000Y-128800000D01*
X108708948Y-107026714D02*
X109690658Y-108008424D01*
%TO.N,Net-(J2-Pin_9)*%
X111040658Y-115210658D02*
X117010000Y-121180000D01*
X111040658Y-107237104D02*
X111040658Y-115210658D01*
X109769608Y-105966054D02*
X111040658Y-107237104D01*
%TO.N,Net-(J2-Pin_10)*%
X111490658Y-106979998D02*
X111490658Y-113120658D01*
X111490658Y-113120658D02*
X117010000Y-118640000D01*
X110123161Y-105612501D02*
X111490658Y-106979998D01*
%TO.N,Net-(J2-Pin_13)*%
X112840658Y-106850658D02*
X117010000Y-111020000D01*
X112840658Y-106208678D02*
X112840658Y-106850658D01*
X111183821Y-104551841D02*
X112840658Y-106208678D01*
%TO.N,Net-(J2-Pin_29)*%
X108790658Y-95737362D02*
X108790658Y-78599342D01*
X108001841Y-96526179D02*
X108790658Y-95737362D01*
X108790658Y-78599342D02*
X117010000Y-70380000D01*
%TO.N,Net-(J2-Pin_19)*%
X115819088Y-95780000D02*
X117010000Y-95780000D01*
X111537375Y-100061713D02*
X115819088Y-95780000D01*
%TO.N,Net-(J2-Pin_20)*%
X112840658Y-98051322D02*
X112840658Y-97409342D01*
X112840658Y-97409342D02*
X117010000Y-93240000D01*
X111183821Y-99708159D02*
X112840658Y-98051322D01*
%TO.N,Net-(J2-Pin_14)*%
X111537375Y-104198287D02*
X115819088Y-108480000D01*
X115819088Y-108480000D02*
X117010000Y-108480000D01*
%TO.N,Net-(J2-Pin_3)*%
X108340658Y-108779746D02*
X108340658Y-127750658D01*
X107648287Y-108087375D02*
X108340658Y-108779746D01*
X108340658Y-127750658D02*
X117010000Y-136420000D01*
%TO.N,Net-(J2-Pin_1)*%
X106941181Y-108794481D02*
X107440658Y-109293958D01*
X107440658Y-131930658D02*
X117010000Y-141500000D01*
X107440658Y-109293958D02*
X107440658Y-131930658D01*
%TO.N,Net-(J2-Pin_26)*%
X109062501Y-97586839D02*
X110140658Y-96508682D01*
X110140658Y-84869342D02*
X117010000Y-78000000D01*
X110140658Y-96508682D02*
X110140658Y-84869342D01*
%TO.N,Net-(J2-Pin_4)*%
X108001841Y-107733821D02*
X108790658Y-108522638D01*
X108790658Y-108522638D02*
X108790658Y-125660658D01*
X108790658Y-125660658D02*
X117010000Y-133880000D01*
%TO.N,Net-(J2-Pin_21)*%
X112390658Y-97794216D02*
X112390658Y-95319342D01*
X110830268Y-99354606D02*
X112390658Y-97794216D01*
X112390658Y-95319342D02*
X117010000Y-90700000D01*
%TO.N,Net-(J2-Pin_24)*%
X109769608Y-98293946D02*
X111040658Y-97022896D01*
X111040658Y-97022896D02*
X111040658Y-89049342D01*
X111040658Y-89049342D02*
X117010000Y-83080000D01*
%TO.N,Net-(J2-Pin_18)*%
X113986194Y-98320000D02*
X117010000Y-98320000D01*
X111890928Y-100415266D02*
X113986194Y-98320000D01*
%TO.N,Net-(J2-Pin_8)*%
X110590658Y-107494212D02*
X110590658Y-117300658D01*
X110590658Y-117300658D02*
X117010000Y-123720000D01*
X109416054Y-106319608D02*
X110590658Y-107494212D01*
%TO.N,Net-(J2-Pin_7)*%
X110140658Y-107751318D02*
X110140658Y-119390658D01*
X110140658Y-119390658D02*
X117010000Y-126260000D01*
X109062501Y-106673161D02*
X110140658Y-107751318D01*
%TO.N,Net-(J1-Pin_18)*%
X111890928Y-103844734D02*
X113986194Y-105940000D01*
X103865266Y-108440928D02*
X103269342Y-109036852D01*
X103269342Y-129840658D02*
X94150000Y-138960000D01*
X107294734Y-95819072D02*
X107890658Y-95223148D01*
X103269342Y-109036852D02*
X103269342Y-129840658D01*
X113986194Y-105940000D02*
X117010000Y-105940000D01*
X107890658Y-74419342D02*
X117010000Y-65300000D01*
X99269072Y-103844734D02*
X97173806Y-105940000D01*
X97173806Y-105940000D02*
X94150000Y-105940000D01*
X107890658Y-95223148D02*
X107890658Y-74419342D01*
%TD*%
M02*
